Coordinates
version=1
nRows=65
nColumns=12
inDegrees=yes

Units are S.I. units (second, meters, Newtons, ...)
Angles are in degrees

endheader
time	SC_y	SC_z	SC_x	AC_y	AC_z	AC_x	GH_y	GH_z	GH_yy	EL_x	PS_y
       0.0              -38.47          31.93          66.25          67.73          7.685          1.372         -32.54          79.92         -100.4          60.44          75.01
   0.03689              -38.46          31.93          66.25          67.73          7.683          1.373         -32.54          79.92         -100.4          60.44           75.0
   0.07377              -38.46          31.93          66.25          67.72           7.68          1.375         -32.54          79.91         -100.4          60.45          74.99
    0.1107              -38.46          31.93          66.25          67.71          7.678          1.376         -32.54           79.9         -100.4          60.45          74.98
    0.1475              -38.45          31.93          66.25          67.71          7.675          1.377         -32.54          79.89         -100.4          60.45          74.98
    0.1844              -38.45          31.93          66.25           67.7          7.672          1.379         -32.54          79.89         -100.4          60.45          74.97
    0.2213              -38.45          31.92          66.25          67.69          7.669           1.38         -32.54          79.88         -100.4          60.45          74.96
    0.2582              -38.44          31.92          66.25          67.69          7.666          1.382         -32.54          79.87         -100.4          60.46          74.95
    0.2951              -38.44          31.92          66.25          67.68          7.662          1.384         -32.54          79.86         -100.4          60.46          74.94
     0.332              -38.43          31.92          66.25          67.67          7.658          1.386         -32.54          79.85         -100.3          60.46          74.93
    0.3689              -38.43          31.92          66.25          67.66          7.654          1.388         -32.54          79.84         -100.3          60.47          74.92
    0.4058              -38.42          31.91          66.24          67.65           7.65           1.39         -32.54          79.82         -100.3          60.47           74.9
    0.4426              -38.42          31.91          66.24          67.64          7.645          1.393         -32.54          79.81         -100.3          60.47          74.89
    0.4795              -38.41          31.91          66.24          67.63           7.64          1.395         -32.54           79.8         -100.3          60.48          74.87
    0.5164               -38.4           31.9          66.24          67.62          7.634          1.398         -32.55          79.78         -100.3          60.48          74.86
    0.5533               -38.4           31.9          66.24           67.6          7.628          1.401         -32.55          79.76         -100.3          60.49          74.84
    0.5902              -38.39           31.9          66.24          67.59          7.622          1.404         -32.55          79.74         -100.3          60.49          74.82
    0.6271              -38.38          31.89          66.24          67.57          7.614          1.408         -32.55          79.72         -100.2           60.5           74.8
     0.664              -38.37          31.89          66.23          67.56          7.607          1.412         -32.55           79.7         -100.2           60.5          74.78
    0.7009              -38.36          31.88          66.23          67.54          7.598          1.416         -32.55          79.68         -100.2          60.51          74.75
    0.7377              -38.35          31.88          66.23          67.52          7.589          1.421         -32.55          79.65         -100.2          60.52          74.72
    0.7746              -38.33          31.87          66.23          67.49          7.578          1.426         -32.55          79.62         -100.1          60.52          74.69
    0.8115              -38.32          31.86          66.22          67.47          7.567          1.432         -32.56          79.59         -100.1          60.53          74.66
    0.8484              -38.31          31.86          66.22          67.44          7.554          1.438         -32.56          79.55         -100.1          60.54          74.62
    0.8853              -38.29          31.85          66.22          67.41           7.54          1.446         -32.56          79.51         -100.0          60.55          74.58
    0.9222              -38.27          31.84          66.21          67.37          7.524          1.454         -32.56          79.47         -100.0          60.56          74.54
    0.9591              -38.25          31.83          66.21          67.33          7.507          1.462         -32.56          79.42         -99.95          60.58          74.49
     0.996              -38.22          31.82           66.2          67.29          7.487          1.473         -32.57          79.36          -99.9          60.59          74.43
     1.033               -38.2          31.81           66.2          67.24          7.464          1.484         -32.57           79.3         -99.84          60.61          74.36
      1.07              -38.16          31.79          66.19          67.18          7.439          1.497         -32.57          79.23         -99.78          60.63          74.29
     1.107              -38.13          31.77          66.18          67.12           7.41          1.511         -32.58          79.15          -99.7          60.65           74.2
     1.144              -38.09          31.75          66.18          67.04          7.377          1.528         -32.58          79.05         -99.62          60.68          74.11
      1.18              -38.04          31.73          66.17          66.96          7.338          1.548         -32.59          78.95         -99.52           60.7          73.99
     1.217              -37.99          31.71          66.16          66.86          7.293           1.57          -32.6          78.82          -99.4          60.74          73.86
     1.254              -37.92          31.68          66.14          66.74          7.241          1.597          -32.6          78.67         -99.26          60.78          73.71
     1.291              -37.85          31.64          66.13          66.61          7.179          1.628         -32.61           78.5          -99.1          60.82          73.53
     1.328              -37.76           31.6          66.11          66.44          7.106          1.665         -32.62          78.29         -98.91          60.88          73.32
     1.365              -37.65          31.55          66.09          66.25          7.018          1.709         -32.64          78.05         -98.68          60.95          73.06
     1.402              -37.52          31.49          66.06          66.01          6.912          1.763         -32.65          77.75         -98.41          61.03          72.75
     1.439              -37.36          31.41          66.03          65.72          6.782          1.829         -32.67          77.38         -98.07          61.12          72.37
     1.475              -37.17          31.32          65.99          65.37          6.622           1.91          -32.7          76.93         -97.66          61.25           71.9
     1.512              -36.93           31.2          65.94          64.92          6.422          2.011         -32.73          76.37         -97.14           61.4          71.32
     1.549              -36.62          31.06          65.87          64.36           6.17          2.138         -32.76          75.66         -96.48          61.59          70.59
     1.586              -36.23          30.87          65.79          63.65           5.85            2.3         -32.81          74.76         -95.65          61.83          69.65
     1.623              -35.73          30.63          65.69          62.74          5.441          2.507         -32.87          73.61         -94.59          62.14          68.46
      1.66              -35.09          30.33          65.56          61.58          4.915          2.773         -32.95          72.13         -93.22          62.53          66.93
     1.697              -34.27          29.94          65.39          60.08          4.244          3.112         -33.05          70.24         -91.48          63.04          64.97
     1.734              -33.24          29.45          65.18          58.21          3.399          3.539         -33.18          67.86         -89.29          63.68           62.5
     1.771              -31.99          28.86          64.92          55.92          2.371          4.059         -33.33          64.97         -86.62          64.46           59.5
     1.807              -30.54          28.17          64.62          53.27          1.178          4.662         -33.51          61.61         -83.52          65.36          56.02
     1.844              -28.96          27.42           64.3           50.4        -0.1133          5.315          -33.7          57.98         -80.16          66.33          52.26
     1.881              -27.39          26.67          63.97          47.53         -1.405          5.968          -33.9          54.34         -76.81          67.31          48.49
     1.918              -25.93          25.98          63.68          44.88         -2.597          6.571         -34.07          50.99         -73.71          68.21          45.01
     1.955              -24.68          25.38          63.42           42.6         -3.626          7.091         -34.23          48.09         -71.04          68.98          42.01
     1.992              -23.65           24.9          63.21          40.72          -4.47          7.518         -34.35          45.71         -68.85          69.62          39.55
     2.029              -22.83          24.51          63.04          39.23         -5.142          7.857         -34.45          43.82         -67.11          70.13          37.59
     2.066              -22.19           24.2          62.91          38.06         -5.667          8.123         -34.53          42.34         -65.74          70.53          36.06
     2.103              -21.69          23.96           62.8          37.15         -6.077           8.33         -34.59          41.19         -64.68          70.84          34.86
     2.139               -21.3          23.78          62.72          36.44         -6.397          8.492         -34.64          40.29         -63.85          71.08          33.93
     2.176               -21.0          23.63          62.66          35.88         -6.649          8.619         -34.68          39.58         -63.19          71.27          33.19
     2.213              -20.75          23.52          62.61          35.44         -6.848           8.72         -34.71          39.02         -62.67          71.42          32.61
      2.25              -20.56          23.43          62.57          35.08         -7.009          8.801         -34.73          38.57         -62.26          71.54          32.14
     2.287               -20.4          23.35          62.54          34.79         -7.138          8.867         -34.75           38.2         -61.92          71.64          31.76
     2.324              -20.27          23.29          62.51          34.56         -7.245           8.92         -34.77           37.9         -61.64          71.72          31.45
     2.361              -20.16          23.24          62.49          34.36         -7.333          8.965         -34.78          37.66         -61.42          71.78           31.2
